<?xml version="1.0" encoding="UTF-8"?>
<svg width="81px" height="65px" viewBox="0 0 81 65" version="1.1" xmlns="http://www.w3.org/2000/svg" xmlns:xlink="http://www.w3.org/1999/xlink">
    <!-- Generator: Sketch 49.3 (51167) - http://www.bohemiancoding.com/sketch -->
    <title>logo</title>
    <desc>Created with Sketch.</desc>
    <defs>
        <polygon id="path-1" points="0.125983929 0.0390535714 18.7970625 0.0390535714 18.7970625 24.1857321 0.125983929 24.1857321"></polygon>
        <polygon id="path-3" points="0.285054911 0.0807830357 17.0592871 0.0807830357 17.0592871 24.2276786 0.285054911 24.2276786"></polygon>
    </defs>
    <g id="Page-1" stroke="none" stroke-width="1" fill="none" fill-rule="evenodd">
        <g id="Biela-noc-–-Kontakt" transform="translate(-68.000000, -105.000000)">
            <g id="logo" transform="translate(68.000000, 105.000000)">
                <path d="M15.5658857,10.0036808 C15.5658857,8.3229308 14.1426,6.94195312 12.4611268,6.94195312 L5.51935446,6.94195312 C4.69959107,6.94195312 4.0530375,7.5885067 4.0530375,8.36523884 L4.0530375,28.8900603 C4.0530375,29.6664308 4.69959107,30.313346 5.51935446,30.313346 L12.4611268,30.313346 C14.1426,30.313346 15.5658857,28.9338147 15.5658857,27.2089487 C15.5658857,25.5274754 14.1426,24.1468594 12.4611268,24.1468594 L8.96836339,24.1468594 C7.84774286,24.1468594 6.94191696,23.2413951 6.94191696,22.0770201 C6.94191696,20.9563996 7.84774286,20.0505737 8.96836339,20.0505737 L12.4611268,20.0505737 C16.3852875,20.0505737 19.6191402,23.2851496 19.6191402,27.2089487 C19.6191402,31.1754174 16.3852875,34.4092701 12.4611268,34.4092701 L5.51935446,34.4092701 C2.45762679,34.4092701 0.000144642857,31.9091183 0.000144642857,28.8900603 L0.000144642857,8.36523884 C0.000144642857,5.30314955 2.45762679,2.84602902 5.51935446,2.84602902 L12.4611268,2.84602902 C16.3852875,2.84602902 19.6191402,6.07915848 19.6191402,10.0036808 C19.6191402,13.9705112 16.3852875,17.2047254 12.4611268,17.2047254 L8.96836339,17.2047254 C7.84774286,17.2047254 6.94191696,16.2985379 6.94191696,15.1345246 C6.94191696,14.013904 7.84774286,13.1077165 8.96836339,13.1077165 L12.4611268,13.1077165 C14.1426,13.1077165 15.5658857,11.7281853 15.5658857,10.0036808" id="Fill-1" fill="#FFFFFF"></path>
                <path d="M27.6355728,13.4958295 L27.6355728,32.3829321 C27.6355728,33.5046375 26.7297469,34.4093786 25.5657335,34.4093786 C24.4447513,34.4093786 23.5385638,33.5046375 23.5385638,32.3829321 L23.5385638,13.4958295 C23.5385638,12.3752089 24.4447513,11.4259902 25.5657335,11.4259902 C26.7297469,11.4259902 27.6355728,12.3752089 27.6355728,13.4958295 M23.5385638,5.04470893 L23.5385638,2.06904375 C23.5385638,0.905753571 24.4447513,0.000289285714 25.5657335,0.000289285714 C26.7297469,0.000289285714 27.6355728,0.905753571 27.6355728,2.06904375 L27.6355728,5.04470893 C27.6355728,6.16641429 26.7297469,7.07187857 25.5657335,7.07187857 C24.4447513,7.07187857 23.5385638,6.16641429 23.5385638,5.04470893" id="Fill-3" fill="#FFFFFF"></path>
                <path d="M49.6569054,19.2748179 C49.6569054,22.4663625 47.1553071,25.0091839 43.9218161,25.0091839 L40.4724455,25.0091839 C39.3507402,25.0091839 38.4456375,24.1040813 38.4456375,22.9827375 C38.4456375,21.8617554 39.3507402,20.9562911 40.4724455,20.9562911 L43.9218161,20.9562911 C44.8703116,20.9562911 45.6032893,20.2229518 45.6032893,19.2748179 C45.6032893,16.902675 43.6629054,14.9622911 41.2914857,14.9622911 C38.1006643,14.9622911 35.5563964,17.5495902 35.5563964,20.6981036 L35.5563964,25.2250634 C35.5563964,28.4155232 38.1006643,30.9601527 41.2914857,30.9601527 C42.498892,30.9601527 43.5764813,30.4857241 44.3528518,29.7097152 C45.1292223,28.9337063 46.4226911,28.8903134 47.2417313,29.7097152 C48.0607714,30.5280321 48.0177402,31.8652554 47.2417313,32.5993179 C45.7331063,34.0638268 43.6198741,35.0564384 41.2914857,35.0564384 C35.9013696,35.0564384 31.5027804,30.6589339 31.5027804,25.2250634 L31.5027804,20.6981036 C31.5027804,15.3072643 35.9013696,10.9097598 41.2914857,10.9097598 C45.9479009,10.9097598 49.6569054,14.6603491 49.6569054,19.2748179" id="Fill-5" fill="#FFFFFF"></path>
                <path d="M61.1470808,32.3830768 C61.1470808,33.5047821 60.2419781,34.4095232 59.1206344,34.4095232 L57.654679,34.4095232 C54.6363442,34.4095232 52.1785004,31.9524027 52.1785004,28.8903134 L52.1785004,2.06918839 C52.1785004,0.94820625 53.0836031,0.0427419643 54.2049469,0.0427419643 C55.325929,0.0427419643 56.2313933,0.94820625 56.2313933,2.06918839 L56.2313933,28.8903134 C56.2313933,29.7097152 56.8786701,30.3566304 57.654679,30.3566304 L59.1206344,30.3566304 C60.2419781,30.3566304 61.1470808,31.261733 61.1470808,32.3830768" id="Fill-7" fill="#FFFFFF"></path>
                <g id="Group-11" transform="translate(62.196429, 10.870634)">
                    <mask id="mask-2" fill="white">
                        <use xlink:href="#path-1"></use>
                    </mask>
                    <g id="Clip-10"></g>
                    <path d="M5.21451964,3.96212946 C4.65330536,2.97096429 4.99827857,1.72088839 5.94713571,1.15967411 C7.19757321,0.470089286 8.66389018,0.0390535714 10.2162696,0.0390535714 C13.8384884,0.0390535714 16.7273679,2.92757143 16.7273679,6.55015179 C16.7273679,7.67113393 15.8219036,8.57659821 14.7005598,8.57659821 C13.5795777,8.57659821 12.6741134,7.67113393 12.6741134,6.55015179 C12.6741134,5.21329018 11.5531312,4.09158482 10.2162696,4.09158482 C9.39686786,4.09158482 8.66389018,4.30782589 8.016975,4.69510714 C7.02544821,5.25595982 5.77501071,4.91098661 5.21451964,3.96212946 M18.7972071,21.5550402 C18.7972071,22.6771071 17.84835,23.5818482 16.7273679,23.5818482 C15.6060241,23.5818482 14.7005598,22.6771071 14.7005598,21.5550402 C14.7005598,17.2435982 11.3806446,13.9233214 7.32702857,13.9233214 C5.60252411,13.9233214 4.22299286,15.3035759 4.22299286,17.0280804 C4.22299286,18.7529464 5.64519375,20.089808 7.32702857,20.089808 C7.80181875,20.089808 8.23285446,19.9596295 8.62085893,19.7448348 C9.61310893,19.1839821 10.8631848,19.5285937 11.4236759,20.5208437 C11.9845286,21.4689777 11.6395554,22.7194152 10.6473054,23.2806295 C9.65541696,23.8400357 8.53443482,24.1857321 7.32702857,24.1857321 C3.40286786,24.1857321 0.125983929,20.9949107 0.125983929,17.0280804 C0.125983929,13.0601652 3.40286786,9.86970536 7.32702857,9.86970536 C13.6226089,9.86970536 18.7972071,15.0012723 18.7972071,21.5550402" id="Fill-9" fill="#FFFFFF" mask="url(#mask-2)"></path>
                </g>
                <path d="M32.6479179,48.1924326 L32.6479179,62.0770621 C32.6479179,63.1980442 31.6994223,64.1038701 30.5780786,64.1038701 C29.457458,64.1038701 28.5519938,63.1980442 28.5519938,62.0770621 L28.5519938,48.1924326 C28.5519938,46.2086558 26.9128286,44.6132451 24.9724446,44.6132451 C22.9890295,44.6132451 21.3936188,46.1659862 21.3936188,48.1924326 L21.3936188,59.187821 C21.3936188,62.2491871 18.935775,64.707754 15.8740473,64.707754 C12.8126813,64.707754 10.3551991,62.2491871 10.3551991,59.187821 L10.3551991,43.1906826 C10.3551991,42.0697004 11.2603018,41.1638746 12.3816455,41.1638746 C13.5460205,41.1638746 14.4518464,42.0697004 14.4518464,43.1906826 L14.4518464,59.187821 C14.4518464,60.0068612 15.0980384,60.6111067 15.8740473,60.6111067 C16.6504179,60.6111067 17.297333,60.0068612 17.297333,59.187821 L17.297333,48.1924326 C17.297333,43.9232987 20.7040339,40.5162362 24.9724446,40.5162362 C29.2415786,40.5162362 32.6479179,43.9663299 32.6479179,48.1924326" id="Fill-12" fill="#FFFFFF"></path>
                <g id="Group-16" transform="translate(35.799107, 40.522420)">
                    <mask id="mask-4" fill="white">
                        <use xlink:href="#path-3"></use>
                    </mask>
                    <g id="Clip-15"></g>
                    <path d="M17.0592871,8.44584107 L17.0592871,15.8627652 C17.0592871,20.4768723 13.3076129,24.2278232 8.65083616,24.2278232 C4.03672902,24.2278232 0.285054911,20.4768723 0.285054911,15.8627652 L0.285054911,15.0863946 C0.285054911,14.051475 1.14784955,13.189042 2.18240759,13.189042 L2.48471116,13.189042 C3.5192692,13.189042 4.38170223,14.051475 4.38170223,15.0863946 L4.38170223,15.8627652 C4.38170223,18.2338232 6.32244777,20.1315375 8.65083616,20.1315375 C11.0226174,20.1315375 12.9630013,18.2338232 12.9630013,15.8627652 L12.9630013,8.44584107 C12.9630013,6.07442143 11.0226174,4.13331429 8.65083616,4.13331429 C6.32244777,4.13331429 4.38170223,6.07442143 4.38170223,8.44584107 C4.38170223,9.4800375 3.5192692,10.3431938 2.48471116,10.3431938 L2.18240759,10.3431938 C1.14784955,10.3431938 0.285054911,9.4800375 0.285054911,8.44584107 C0.285054911,3.83209554 4.03672902,0.0807830357 8.65083616,0.0807830357 C10.9795862,0.0807830357 13.0917335,1.02891696 14.6010817,2.53826518 C16.1100683,4.047975 17.0592871,6.16048393 17.0592871,8.44584107" id="Fill-14" fill="#FFFFFF" mask="url(#mask-4)"></path>
                </g>
                <path d="M70.5416344,59.4040259 C71.3606746,60.2230661 71.3606746,61.5168964 70.5416344,62.2929054 C68.9028308,63.8875929 66.7899603,64.7500259 64.6340585,64.7500259 C60.0203129,64.7500259 56.2690004,60.9994366 56.2690004,56.3849679 L56.2690004,48.9684054 C56.2690004,44.3546598 60.0203129,40.6033473 64.6340585,40.6033473 C66.7899603,40.6033473 68.9028308,41.4654187 70.5416344,43.0608295 C71.3606746,43.8364768 71.3606746,45.1306687 70.5416344,45.9500705 C69.7656254,46.7257179 68.4714335,46.7257179 67.6950629,45.9500705 C66.8333531,45.1306687 65.7550406,44.6558786 64.6340585,44.6558786 C62.3053085,44.6558786 60.3222549,46.6392937 60.3222549,48.9684054 L60.3222549,56.3849679 C60.3222549,58.712633 62.2622772,60.6541018 64.6340585,60.6541018 C65.7550406,60.6541018 66.8333531,60.2653741 67.6950629,59.4040259 C68.4714335,58.6276554 69.7656254,58.6276554 70.5416344,59.4040259" id="Fill-17" fill="#FFFFFF"></path>
            </g>
        </g>
    </g>
</svg>